# xmcd CD database file generated by Grip 2.91
# 
# Track frame offsets:
#       150
#       34140
#       60380
#       89468
#       121488
#       149226
#       165177
#       184864
#       209310
#       253664
#       273617
#       290756
#       319258
# 
# Disc length: 4438 seconds
# 
# Revision: 3
# Processed by: cddbd v1.4b41PL1 Copyright (c) Steve Scherf et al.
# Submitted via: Grip 2.91
# 
DISCID=cc11540d
DTITLE=The Westside Andy/Mel Ford Band - Live on the Westside
DYEAR=1900
DGENRE=
TTITLE0=On My Way
TTITLE1=You Were Wrong
TTITLE2=Way Back Home
TTITLE3=Get Your Business Straight
TTITLE4=I Owe You
TTITLE5=It Hurts Me
TTITLE6=My Daddy Was A Jockey
TTITLE7=Sad Hours
TTITLE8=Put It Where You Want It
TTITLE9=I Understand You
TTITLE10=Party At My House
TTITLE11=Ludella
TTITLE12=Persimmon Pie
EXTD=
EXTT0=
EXTT1=
EXTT2=
EXTT3=
EXTT4=
EXTT5=
EXTT6=
EXTT7=
EXTT8=
EXTT9=
EXTT10=
EXTT11=
EXTT12=
PLAYORDER=
